<svg xmlns="http://www.w3.org/2000/svg" xmlns:xlink="http://www.w3.org/1999/xlink" viewBox="0,0,256,256" width="24px" height="24px"><g fill="#ffffff" fill-rule="nonzero" stroke="none" stroke-width="1" stroke-linecap="butt" stroke-linejoin="miter" stroke-miterlimit="10" stroke-dasharray="" stroke-dashoffset="0" font-family="none" font-weight="none" font-size="none" text-anchor="none" style="mix-blend-mode: normal"><g transform="scale(10.66667,10.66667)"><path d="M19.79297,2.17969c-0.25064,0.00773 -0.49308,0.11072 -0.67383,0.29297l-10.96289,10.96289l-1.40625,-1.40625c-0.18827,-0.19353 -0.4468,-0.30272 -0.7168,-0.30274c-0.40692,0.00011 -0.77321,0.24676 -0.92633,0.62377c-0.15312,0.37701 -0.06255,0.80921 0.22907,1.09303l2,2l-3.03516,3.0332l-0.8125,-0.8125c-0.25292,-0.25273 -0.62148,-0.35129 -0.96679,-0.25855c-0.34531,0.09274 -0.61489,0.3627 -0.70716,0.70813c-0.09227,0.34544 0.00681,0.71386 0.25988,0.96643l3.04883,3.04688c0.12908,0.13149 0.29197,0.22476 0.4707,0.26953c1.67037,1.21246 3.89267,1.01382 5.44727,0.0625c0.85882,-0.52555 1.58236,-1.29548 1.82031,-2.31445c0.23761,-1.0175 -0.14981,-2.18717 -1.08398,-3.08594c2.41521,-1.6377 11.19128,-8.10249 8.99023,-14.2168c-0.115,-0.322 -0.38766,-0.56467 -0.72266,-0.63867c-0.0835,-0.0195 -0.16841,-0.02602 -0.25195,-0.02344zM9.33594,17.44336l1.04687,1.04688l0.00586,0.00781c0.57389,0.55072 0.59846,0.87016 0.52344,1.19141c-0.07502,0.32125 -0.38846,0.73967 -0.91602,1.0625c-1.05511,0.64566 -2.65577,0.74657 -3.52344,-0.12109c-0.03972,-0.04071 -0.08285,-0.07795 -0.12891,-0.11133l-0.04297,-0.04297z"></path></g></g></svg>