<svg xmlns="http://www.w3.org/2000/svg" xmlns:xlink="http://www.w3.org/1999/xlink" viewBox="0,0,256,256" width="24px" height="24px"><g fill="#ffffff" fill-rule="nonzero" stroke="none" stroke-width="1" stroke-linecap="butt" stroke-linejoin="miter" stroke-miterlimit="10" stroke-dasharray="" stroke-dashoffset="0" font-family="none" font-weight="none" font-size="none" text-anchor="none" style="mix-blend-mode: normal"><g transform="scale(10.66667,10.66667)"><path d="M19.83789,2.04297c-3.02102,0.02626 -8.25675,0.58617 -11.67188,3.81055c-3.141,2.966 -4.54206,6.41189 -4.16406,12.21289h0.01172c-0.31367,0.84612 -0.58464,1.74433 -0.79688,2.69531c-0.141,0.632 0.32856,1.23828 0.97656,1.23828c0.476,0 0.87647,-0.33773 0.98047,-0.80273c1.53704,-6.82018 6.52909,-10.79949 6.68555,-10.92187c0.0131,0.01595 0.01216,0.01318 0.02539,0.0293c-1.469,2.881 -2.91906,4.63242 -4.03906,8.35742c4.423,-1.321 7.59009,-4.10677 8.87109,-5.38477c0.367,-0.367 0.38678,-0.95166 0.05078,-1.34766c-0.363,-0.427 -0.81275,-0.95988 -1.09375,-1.29688c-0.244,-0.291 -0.04992,-0.73695 0.33008,-0.75195c0.753,-0.03 1.97394,-0.08228 2.71094,-0.11328c0.384,-0.016 0.72105,-0.25052 0.87305,-0.60352c0.584,-1.357 2.01526,-4.71984 2.32227,-5.83984c0.171,-0.624 -0.27683,-1.24162 -0.92383,-1.26562c-0.32937,-0.01175 -0.71686,-0.01938 -1.14844,-0.01562z"></path></g></g></svg>