<svg xmlns="http://www.w3.org/2000/svg" xmlns:xlink="http://www.w3.org/1999/xlink" viewBox="0,0,256,256" width="24px" height="24px"><g fill="#ffffff" fill-rule="nonzero" stroke="none" stroke-width="1" stroke-linecap="butt" stroke-linejoin="miter" stroke-miterlimit="10" stroke-dasharray="" stroke-dashoffset="0" font-family="none" font-weight="none" font-size="none" text-anchor="none" style="mix-blend-mode: normal"><g transform="scale(10.66667,10.66667)"><path d="M20.53,3.871c-0.122,-0.076 -3.056,-1.871 -8.53,-1.871c-5.474,0 -8.408,1.795 -8.53,1.871l-0.47,0.294v8.264c0,2.16 2.612,8.172 8.782,9.547l0.218,0.048l0.218,-0.048c6.17,-1.375 8.782,-7.388 8.782,-9.548v-8.263zM7.5,4.5c0.555,-0.078 1.106,-0.01 1.62,0.121c0.404,0.11 0.775,0.252 1.161,0.436c0.092,0.028 0.174,0.068 0.253,0.12c0.031,0.017 0.059,0.025 0.09,0.043l-0.009,0.012c0.229,0.182 0.385,0.452 0.385,0.768c0,0.552 -0.448,1 -1,1c-0.236,0 -0.444,-0.094 -0.615,-0.231l-0.01,0.012c-0.012,-0.016 -0.034,-0.034 -0.048,-0.051c-0.023,-0.021 -0.043,-0.044 -0.064,-0.068c-0.204,-0.23 -0.472,-0.473 -0.737,-0.665c-0.322,-0.228 -0.666,-0.409 -1.026,-0.497c-0.74,-0.161 -1.686,0.096 -2.5,0.5c0.64,-0.663 1.398,-1.298 2.5,-1.5zM11,9c-0.574,0.604 -1.475,1 -2.5,1c-1.025,0 -1.926,-0.396 -2.5,-1c0.574,-0.604 1.475,-1 2.5,-1c1.025,0 1.926,0.396 2.5,1zM12.44,20.56l-0.44,0.44l-0.44,-0.44c-0.358,-0.358 -0.56,-0.845 -0.56,-1.352v-0.208c0,-0.552 0.448,-1 1,-1v0c0.552,0 1,0.448 1,1v0.208c0,0.507 -0.202,0.994 -0.56,1.352zM17.03,13.664l-0.542,0.775c-0.091,0.132 -0.182,0.251 -0.283,0.382c-0.129,0.157 -0.273,0.305 -0.436,0.432c-0.641,0.524 -1.533,0.766 -2.39,0.638c-0.429,-0.061 -0.844,-0.218 -1.219,-0.443c-0.058,-0.036 -0.107,-0.085 -0.162,-0.125c-0.055,0.039 -0.103,0.089 -0.161,0.124c-0.374,0.225 -0.789,0.383 -1.218,0.442c-0.856,0.129 -1.747,-0.115 -2.388,-0.638c-0.163,-0.127 -0.306,-0.275 -0.435,-0.432c-0.102,-0.131 -0.192,-0.25 -0.283,-0.382l-0.542,-0.774c-0.342,-0.536 -0.688,-1.068 -0.971,-1.663c0.595,0.283 1.127,0.629 1.662,0.971l0.774,0.542l0.376,0.276c0.092,0.062 0.19,0.11 0.286,0.155c0.392,0.17 0.808,0.189 1.172,0.084c0.181,-0.055 0.354,-0.13 0.501,-0.241c0.074,-0.054 0.146,-0.11 0.21,-0.176l0.311,-0.318l0.706,-0.722l0.708,0.722l0.311,0.317c0.064,0.065 0.136,0.122 0.211,0.175c0.147,0.111 0.319,0.188 0.501,0.241c0.364,0.106 0.779,0.084 1.17,-0.084c0.096,-0.044 0.193,-0.093 0.286,-0.155l0.376,-0.276l0.775,-0.542c0.536,-0.341 1.068,-0.687 1.664,-0.969c-0.282,0.596 -0.628,1.128 -0.97,1.664zM15.5,10c-1.025,0 -1.926,-0.396 -2.5,-1c0.574,-0.604 1.475,-1 2.5,-1c1.025,0 1.926,0.396 2.5,1c-0.574,0.604 -1.475,1 -2.5,1zM16.5,5.5c-0.36,0.088 -0.704,0.269 -1.026,0.498c-0.265,0.191 -0.533,0.435 -0.737,0.665c-0.021,0.024 -0.041,0.046 -0.064,0.068c-0.014,0.017 -0.035,0.034 -0.048,0.051l-0.009,-0.012c-0.172,0.136 -0.38,0.23 -0.616,0.23c-0.552,0 -1,-0.448 -1,-1c0,-0.316 0.156,-0.586 0.385,-0.769l-0.009,-0.012c0.031,-0.018 0.059,-0.026 0.09,-0.043c0.079,-0.052 0.161,-0.092 0.253,-0.12c0.385,-0.184 0.756,-0.326 1.161,-0.436c0.514,-0.13 1.065,-0.198 1.62,-0.12c1.102,0.202 1.86,0.837 2.5,1.5c-0.814,-0.404 -1.76,-0.661 -2.5,-0.5z"></path></g></g></svg>