<svg xmlns="http://www.w3.org/2000/svg" xmlns:xlink="http://www.w3.org/1999/xlink" viewBox="0,0,256,256" width="24px" height="24px"><g fill="#ffffff" fill-rule="nonzero" stroke="none" stroke-width="1" stroke-linecap="butt" stroke-linejoin="miter" stroke-miterlimit="10" stroke-dasharray="" stroke-dashoffset="0" font-family="none" font-weight="none" font-size="none" text-anchor="none" style="mix-blend-mode: normal"><g transform="scale(10.66667,10.66667)"><path d="M23,6v12c0,1.654 -1.346,3 -3,3h-16c-1.654,0 -3,-1.346 -3,-3v-12c0,-1.654 1.346,-3 3,-3h16c1.654,0 3,1.346 3,3zM12,10h-4v-4c-2.21,0 -4,1.79 -4,4c0,2.21 1.79,4 4,4c2.21,0 4,-1.79 4,-4zM19,8c0,-0.552 -0.447,-1 -1,-1h-3c-0.553,0 -1,0.448 -1,1c0,0.552 0.447,1 1,1h3c0.553,0 1,-0.448 1,-1zM19,12c0,-0.552 -0.447,-1 -1,-1h-3c-0.553,0 -1,0.448 -1,1c0,0.552 0.447,1 1,1h3c0.553,0 1,-0.448 1,-1zM20,17v0c0,-0.552 -0.448,-1 -1,-1h-5v2h5c0.552,0 1,-0.448 1,-1zM11,14.5c-0.552,0 -1,0.448 -1,1v0.5h-5c-0.553,0 -1,0.448 -1,1c0,0.552 0.447,1 1,1h7v-2.5c0,-0.552 -0.448,-1 -1,-1z"></path></g></g></svg>