<svg xmlns="http://www.w3.org/2000/svg" xmlns:xlink="http://www.w3.org/1999/xlink" viewBox="0,0,256,256" width="24px" height="24px"><g fill="#ffffff" fill-rule="nonzero" stroke="none" stroke-width="1" stroke-linecap="butt" stroke-linejoin="miter" stroke-miterlimit="10" stroke-dasharray="" stroke-dashoffset="0" font-family="none" font-weight="none" font-size="none" text-anchor="none" style="mix-blend-mode: normal"><g transform="scale(10.66667,10.66667)"><path d="M4,2v20h8l-1.4,-3.8c-0.4,-1 -0.1,-2.1 0.6,-2.8l1.7,-1.6l-1.6,-2.8l-0.3,0.6c-0.5,0.8 -1.4,1.4 -2.4,1.4h-1.6c-0.6,0 -1,-0.4 -1,-1v0c0,-0.6 0.4,-1 1,-1h1.6c0.3,0 0.6,-0.2 0.7,-0.5l0.7,-1c0.3,-0.5 0.7,-0.9 1.2,-1.2l1.5,-0.7l1.3,-0.3c0.7,-0.2 1.5,0 2.2,0.3l2.1,1c0.4,0.2 0.6,0.7 0.4,1.2v0c-0.2,0.4 -0.7,0.6 -1.2,0.4l-2.1,-1c-0.2,-0.1 -0.5,-0.1 -0.7,0l-0.9,0.2l1.9,3.3c0.5,0.8 0.3,1.8 -0.5,2.3l-2.8,2c-0.1,0.2 -0.2,0.5 -0.1,0.8l1.7,4.4h6v-4h-2.8v0c-0.8,0 -1.6,-0.4 -2.1,-1.1l-0.3,-0.4l1.5,-1.2l0.2,0.3c0.2,0.2 0.4,0.3 0.7,0.3v0h2.8v-14.1zM8.5,6.2c0,-1 0.8,-1.8 1.8,-1.8c1,0 1.7,0.9 1.7,1.8c0,0.9 -0.8,1.8 -1.8,1.8c-1,0 -1.7,-0.8 -1.7,-1.8z"></path></g></g></svg>