<svg xmlns="http://www.w3.org/2000/svg" xmlns:xlink="http://www.w3.org/1999/xlink" viewBox="0,0,256,256" width="24px" height="24px"><g fill="#ffffff" fill-rule="nonzero" stroke="none" stroke-width="1" stroke-linecap="butt" stroke-linejoin="miter" stroke-miterlimit="10" stroke-dasharray="" stroke-dashoffset="0" font-family="none" font-weight="none" font-size="none" text-anchor="none" style="mix-blend-mode: normal"><g transform="scale(10.66667,10.66667)"><path d="M4,3c-1.105,0 -2,0.895 -2,2v12c0,1.105 0.895,2 2,2h14l2.788,2.788c0.447,0.447 1.212,0.13 1.212,-0.502v-16.286c0,-1.105 -0.895,-2 -2,-2zM8,7v0c0.491,0 0.932,0.299 1.113,0.755l2.417,6.066c0.225,0.565 -0.191,1.179 -0.799,1.179v0c-0.363,0 -0.688,-0.228 -0.81,-0.57l-0.389,-1.086h-3.063l-0.39,1.086c-0.122,0.342 -0.446,0.57 -0.81,0.57v0c-0.608,0 -1.025,-0.614 -0.799,-1.179l2.417,-6.066c0.181,-0.456 0.622,-0.755 1.113,-0.755zM16.5,7v0c0.38,0 0.688,0.308 0.688,0.687v0.656h2.146c0.368,0.001 0.666,0.299 0.666,0.667v0.646c-0.203,1.734 -0.98,3.027 -2.25,3.906c0.161,0.026 0.325,0.048 0.494,0.064c0.342,0.033 0.6,0.325 0.6,0.669v0c0,0.391 -0.333,0.707 -0.722,0.672c-0.773,-0.07 -1.493,-0.248 -2.122,-0.499c-0.7,0.263 -1.545,0.425 -2.283,0.492c-0.39,0.035 -0.724,-0.276 -0.721,-0.668v0c0.002,-0.35 0.275,-0.636 0.625,-0.66c0.297,-0.02 0.611,-0.054 0.848,-0.102c-0.554,-0.497 -1.082,-1.398 -1.327,-2.228c-0.128,-0.433 0.208,-0.865 0.66,-0.865h0.017c0.306,0 0.582,0.192 0.668,0.482c0.217,0.732 0.848,1.664 1.576,2.08c1.324,-0.633 2.18,-1.754 2.438,-3.344h-4.844c-0.363,0.001 -0.657,-0.293 -0.657,-0.655v0c0,-0.362 0.294,-0.656 0.656,-0.656h2.156v-0.657c0,-0.379 0.308,-0.687 0.688,-0.687zM8,9.031l-1.063,3h2.125z"></path></g></g></svg>