<svg xmlns="http://www.w3.org/2000/svg" xmlns:xlink="http://www.w3.org/1999/xlink" viewBox="0,0,256,256" width="24px" height="24px"><g fill="#ffffff" fill-rule="nonzero" stroke="none" stroke-width="1" stroke-linecap="butt" stroke-linejoin="miter" stroke-miterlimit="10" stroke-dasharray="" stroke-dashoffset="0" font-family="none" font-weight="none" font-size="none" text-anchor="none" style="mix-blend-mode: normal"><g transform="scale(10.66667,10.66667)"><path d="M22.928,21.627l-0.928,-2.31v-3.317c0,-1.822 -0.498,-3.527 -1.353,-5h-4.17l1.451,3.629c0.205,0.513 -0.045,1.095 -0.558,1.3c-0.12,0.049 -0.246,0.071 -0.37,0.071c-0.396,0 -0.772,-0.237 -0.929,-0.629l-1.437,-3.592l-1.927,1.927c-0.195,0.196 -0.451,0.294 -0.707,0.294c-0.256,0 -0.512,-0.098 -0.707,-0.293c-0.391,-0.391 -0.391,-1.023 0,-1.414l1.293,-1.293h-9.233c-0.855,1.473 -1.353,3.178 -1.353,5v3.317l-0.928,2.31c-0.124,0.309 -0.087,0.658 0.1,0.933c0.185,0.275 0.496,0.44 0.828,0.44h20c0.332,0 0.643,-0.165 0.828,-0.44c0.187,-0.275 0.224,-0.624 0.1,-0.933zM21,9c0,-1.657 -1.343,-3 -3,-3h-0.05h-11.95c-1.657,0 -3,1.343 -3,3zM17.95,4c-0.424,-1.62 -1.834,-2.839 -3.557,-2.97c0.727,0.821 1.227,1.843 1.419,2.97zM9.906,1c-1.858,0 -3.411,1.279 -3.858,3h7.716c-0.447,-1.721 -1.999,-3 -3.858,-3z"></path></g></g></svg>