<svg xmlns="http://www.w3.org/2000/svg" xmlns:xlink="http://www.w3.org/1999/xlink" viewBox="0,0,256,256" width="24px" height="24px"><g fill="#ffffff" fill-rule="nonzero" stroke="none" stroke-width="1" stroke-linecap="butt" stroke-linejoin="miter" stroke-miterlimit="10" stroke-dasharray="" stroke-dashoffset="0" font-family="none" font-weight="none" font-size="none" text-anchor="none" style="mix-blend-mode: normal"><g transform="scale(10.66667,10.66667)"><path d="M16,4c-1.657,0 -3,1.343 -3,3v10c0,0.552 -0.448,1 -1,1v0c-0.552,0 -1,-0.448 -1,-1v-10c0,-1.657 -1.343,-3 -3,-3h-5c-0.552,0 -1,0.448 -1,1v13c0,1.105 0.895,2 2,2h6.277c0.346,0.595 0.984,1 1.723,1c0.739,0 1.376,-0.405 1.723,-1h6.277c1.105,0 2,-0.895 2,-2v-13c0,-0.552 -0.448,-1 -1,-1z"></path></g></g></svg>